<svg width="32" height="32" viewBox="0 0 32 32" fill="none" xmlns="http://www.w3.org/2000/svg">
<path d="M13.104 29.0136C7.13463 27.6802 2.66797 22.3602 2.66797 15.9869C2.66797 13.5469 3.30797 11.2802 4.4413 9.31755L10.148 19.1976L10.1346 19.1842C11.4413 21.5576 14.068 22.9042 16.7613 22.5709L13.068 28.9469L13.104 29.0136ZM16.0013 29.3202L21.708 19.4136V19.4002C22.3213 18.3602 22.6546 17.1736 22.6546 15.9602V15.9469C22.6546 14.4936 22.188 13.0936 21.308 11.9469H28.6973C29.084 13.2002 29.2973 14.5536 29.2973 15.9469C29.2973 23.3109 23.328 29.2802 15.964 29.2802L16.0013 29.3202ZM19.428 18.0402V18.0269C18.2813 19.9202 15.828 20.5336 13.9346 19.3869C13.348 19.0269 12.8546 18.5336 12.5213 17.9469L12.4813 17.8802C11.4013 15.9336 12.108 13.5069 14.0413 12.4402C15.9746 11.3602 18.4013 12.0669 19.468 14.0002C20.1346 15.2269 20.1213 16.7069 19.428 17.9202L19.388 17.9736L19.428 18.0402ZM6.17464 6.96022H6.1613C8.6813 4.20022 12.2413 2.62689 15.9746 2.64022H15.9613C20.7213 2.62689 25.1213 5.17355 27.508 9.29355H15.948C13.268 9.28022 10.8546 10.8802 9.81464 13.3336L6.1213 6.93355L6.17464 6.96022Z" fill="url(#paint0_linear_1117_3704)"/>
<defs>
<linearGradient id="paint0_linear_1117_3704" x1="4.95758" y1="28.2144" x2="25.0815" y2="-0.0226267" gradientUnits="userSpaceOnUse">
<stop stop-color="#0073FF"/>
<stop offset="1" stop-color="#00A2FF"/>
</linearGradient>
</defs>
</svg>
