<svg width="112" height="43" viewBox="0 0 112 43" fill="none" xmlns="http://www.w3.org/2000/svg">
<path d="M27.0231 3.61806C27.2542 4.16173 27.3582 4.75095 27.3272 5.34086C27.2962 5.93078 27.1309 6.50584 26.8441 7.02226C26.1772 8.15735 25.1205 9.01135 23.8707 9.4252C22.0436 10.1259 20.0453 10.2475 18.1467 9.77368C16.2492 9.35499 14.4963 8.44176 13.0659 7.12669L13.5409 6.60933C14.3719 7.11353 15.2856 7.46689 16.2396 7.6531C17.3846 7.8584 18.5583 7.84281 19.6974 7.6072L19.5482 6.48717C19.3504 5.39782 19.4968 4.27393 19.9671 3.27163C20.4105 2.37927 21.1808 1.69216 22.1178 1.35313C22.5853 1.15407 23.09 1.05775 23.5979 1.07071C24.1058 1.08366 24.605 1.20559 25.0617 1.42822C25.9772 1.87294 26.6815 2.6593 27.0231 3.61806Z" fill="#0A1837" fill-opacity="0.3"/>
<path d="M7.24299 33.5738C5.96745 33.5903 4.69612 33.424 3.46779 33.0797C2.40106 32.7705 1.366 32.3609 0.376448 31.8566L0.419593 26.7504H0.851044L2.30719 29.325C2.80944 30.3159 3.51951 31.1867 4.38894 31.8782C5.2379 32.4653 6.25472 32.7606 7.28613 32.7195C8.4647 32.7756 9.6302 32.4523 10.6115 31.7973C11.0118 31.5243 11.3374 31.1554 11.5586 30.7244C11.7798 30.2933 11.8895 29.8137 11.8778 29.3294C11.8947 28.9005 11.8234 28.4727 11.6683 28.0725C11.5132 27.6723 11.2776 27.3082 10.9761 27.0028C10.0012 26.2101 8.85721 25.6521 7.63237 25.3719L5.82567 24.8196C4.25878 24.41 2.8341 23.5788 1.70639 22.4164C0.706133 21.3319 0.16759 19.9004 0.204946 18.4255C0.197438 17.5091 0.393773 16.6024 0.779742 15.7711C1.16571 14.9399 1.73166 14.2048 2.43663 13.6192C4.25142 12.1948 6.52881 11.4917 8.83072 11.6453C9.89289 11.639 10.9519 11.7614 11.9846 12.0098C12.9776 12.2554 13.9362 12.6231 14.8387 13.1047L14.5809 17.7427H14.1494L12.648 15.0818C12.2512 14.3152 11.7038 13.6365 11.0387 13.0863C10.3241 12.6508 9.49181 12.4483 8.65707 12.5071C7.68211 12.5078 6.72825 12.7911 5.91088 13.3225C5.50733 13.5568 5.1746 13.8958 4.94789 14.3036C4.72118 14.7115 4.60893 15.173 4.623 15.6394C4.60764 16.0844 4.69901 16.5267 4.88947 16.9292C5.07993 17.3317 5.36396 17.6828 5.71781 17.9531C6.70328 18.6542 7.79616 19.1904 8.95369 19.5408L10.8844 20.0985C12.5829 20.5074 14.1219 21.4109 15.3068 22.6947C16.2021 23.8208 16.6729 25.2259 16.6367 26.6641C16.6635 27.6384 16.4529 28.6046 16.0229 29.4794C15.593 30.3541 14.9566 31.1111 14.1688 31.6851C12.1304 33.0585 9.69641 33.7223 7.24299 33.5738ZM18.4866 32.9352V32.5038L19.0874 32.3323C19.5616 32.227 19.9812 31.9524 20.2674 31.56C20.5014 31.1415 20.6135 30.6658 20.591 30.1869V16.7558C20.6233 16.2829 20.5104 15.8113 20.2674 15.4043C19.9667 15.0553 19.5452 14.833 19.0874 14.7819L18.4866 14.6536V14.2221L26.339 11.6863L26.7704 12.1177L26.6421 18.2119V30.2279C26.6201 30.7065 26.7326 31.1818 26.9668 31.5999C27.2408 31.9853 27.6443 32.2594 28.1036 32.3722L28.5351 32.5005V32.932L18.4866 32.9352ZM39.7711 25.5056C38.045 25.5571 36.3292 25.221 34.7501 24.5219V25.9781C34.7172 26.3649 34.8387 26.749 35.0881 27.0465C35.3375 27.344 35.6945 27.5307 36.0812 27.5658L44.1493 29.0672C45.3923 29.2964 46.6129 29.6339 47.7972 30.0758C48.8026 30.4351 49.7025 31.0398 50.415 31.835C51.1142 32.7159 51.4654 33.8229 51.402 34.9458C51.3981 36.3584 50.9139 37.7278 50.0289 38.8288C48.9561 40.1302 47.5563 41.1227 45.9732 41.7044C43.8395 42.4938 41.5739 42.8655 39.2998 42.7992C37.4566 42.8616 35.6156 42.6226 33.8495 42.0917C32.7407 41.7759 31.7486 41.1426 30.9954 40.2699C30.4626 39.5977 30.1682 38.7675 30.1584 37.9098C30.1878 36.7907 30.5543 35.7065 31.2101 34.7991C31.8819 33.7826 32.768 32.9256 33.8063 32.288C33.0497 32.0366 32.3801 31.5754 31.8756 30.9581C31.4885 30.453 31.2775 29.8351 31.2748 29.1988C31.2736 28.6311 31.4297 28.0741 31.7257 27.5895C32.0505 27.0538 32.4162 26.5439 32.8194 26.0644L34.2356 24.262C33.2329 23.7089 32.4072 22.8836 31.8537 21.8811C31.3002 20.8787 31.0415 19.7402 31.1076 18.597C31.0775 17.6482 31.2604 16.7046 31.6429 15.8357C32.0253 14.9668 32.5976 14.1947 33.3177 13.576C34.7911 12.2889 36.9584 11.6453 39.8197 11.6453C41.1186 11.6229 42.4134 11.7964 43.6607 12.1598C44.6604 12.4492 45.5878 12.9466 46.382 13.6192C47.2717 13.4833 48.1428 13.2459 48.9783 12.9116C49.7853 12.5877 50.5324 12.1309 51.1884 11.5601L51.7892 11.9915V14.18H46.9354C47.9945 15.4038 48.5469 16.9854 48.48 18.6024C48.5019 19.5392 48.3154 20.4691 47.9339 21.325C47.5524 22.1808 46.9855 22.9412 46.2742 23.5512C44.8001 24.8541 42.6324 25.5056 39.7711 25.5056ZM39.728 24.6427C40.238 24.6715 40.7456 24.5534 41.1906 24.3026C41.6356 24.0518 41.9995 23.6787 42.239 23.2276C42.8722 21.7388 43.1442 20.1214 43.0329 18.5075C43.1507 16.9139 42.8782 15.3156 42.239 13.8511C42.0016 13.4216 41.6486 13.0673 41.22 12.8284C40.7914 12.5896 40.3044 12.4756 39.8143 12.4995C39.3233 12.4834 38.8376 12.6056 38.4127 12.8522C37.9878 13.0988 37.6407 13.4599 37.4111 13.8942C36.7596 15.3706 36.4796 16.9842 36.5957 18.5938C36.4866 20.1903 36.7449 21.7906 37.3507 23.2718C37.5717 23.7065 37.914 24.0679 38.3361 24.3122C38.7582 24.5564 39.242 24.6731 39.7291 24.6481L39.728 24.6427ZM33.3307 36.5346C33.2805 37.2488 33.3957 37.9649 33.6674 38.6273C33.939 39.2898 34.3597 39.8806 34.8968 40.354C36.3573 41.3325 38.1065 41.7865 39.8585 41.6419C41.7189 41.7623 43.576 41.3619 45.2214 40.4856C45.7872 40.1531 46.2535 39.6748 46.5714 39.1007C46.8894 38.5266 47.0475 37.8777 47.0292 37.2217C47.0416 36.8537 46.9685 36.4879 46.8158 36.153C46.6631 35.818 46.4349 35.5229 46.1491 35.2909C45.2577 34.6833 44.2327 34.3002 43.1613 34.1745L35.3941 32.7195L34.707 32.548C34.2908 33.1509 33.9588 33.8077 33.72 34.5003C33.4761 35.1515 33.3445 35.8393 33.3307 36.5346ZM53.2033 32.9352V32.5038L53.8041 32.3323C54.263 32.2452 54.6704 31.9839 54.9409 31.6031C55.1767 31.1836 55.3021 30.7112 55.3055 30.23V16.7946C55.3416 16.3112 55.2395 15.8275 55.0111 15.4C54.7222 15.0478 54.3058 14.824 53.8526 14.7776L53.2054 14.6061V14.1746L60.5401 11.6852L60.9715 12.1166L61.3146 15.0343C62.2709 14.0805 63.3609 13.271 64.5504 12.6311C65.7128 11.9869 67.0193 11.6474 68.3483 11.6442C69.5083 11.5879 70.6588 11.8793 71.6521 12.4812C72.5437 13.1218 73.2058 14.0319 73.5408 15.0775C74.6079 14.0527 75.8322 13.2053 77.1671 12.5675C78.3487 11.9813 79.6462 11.6662 80.965 11.6453C81.7721 11.5765 82.5849 11.6702 83.3552 11.9209C84.1255 12.1716 84.8378 12.5741 85.4499 13.1047C86.5145 14.3865 87.0311 16.0363 86.8877 17.6964V30.2699C86.8435 30.7486 86.9763 31.2269 87.2609 31.6143C87.5455 32.0017 87.9623 32.2713 88.4323 32.3722L88.908 32.5038V32.9352H78.9954V32.5038L79.4269 32.3754C79.8862 32.2626 80.2897 31.9886 80.5637 31.6031C80.7977 31.1846 80.9098 30.7089 80.8873 30.23V17.0945C80.9826 16.2203 80.7522 15.3416 80.2401 14.6266C79.9592 14.3827 79.632 14.198 79.2779 14.0837C78.9239 13.9693 78.5505 13.9276 78.18 13.9611C77.4299 13.9627 76.6896 14.1314 76.013 14.4551C75.2142 14.8491 74.4711 15.3471 73.8029 15.936C73.9518 16.4245 74.0456 16.9281 74.0823 17.4375C74.1254 17.9811 74.147 18.5532 74.147 19.1536V30.2634C74.114 30.74 74.2511 31.2127 74.534 31.5977C74.8168 31.9826 75.227 32.2548 75.6916 32.3657L76.0766 32.5038V32.9352H66.1209V32.5038L66.7217 32.3323C67.1768 32.2201 67.5787 31.9532 67.8586 31.5772C68.0944 31.1673 68.2068 30.698 68.1822 30.2257V17.1376C68.2616 16.2749 68.0418 15.4112 67.5598 14.6913C67.2802 14.4226 66.9453 14.2181 66.5784 14.0922C66.2116 13.9662 65.8217 13.9219 65.436 13.9622C64.7484 13.9696 64.0722 14.1388 63.4621 14.4562C62.7168 14.8455 62.0244 15.3287 61.4019 15.894V30.2699C61.3545 30.7428 61.4807 31.2169 61.757 31.6036C62.0332 31.9904 62.4407 32.2636 62.9034 32.3722L63.2884 32.5038V32.9352H53.2033ZM96.5889 33.5824C95.0691 33.6302 93.5832 33.1272 92.4049 32.1661C91.8295 31.6599 91.3778 31.0284 91.0846 30.3203C90.7914 29.6122 90.6645 28.8462 90.7136 28.0814C90.7509 27.3465 90.9559 26.6299 91.313 25.9866C91.6701 25.3432 92.1698 24.7902 92.7738 24.3698C94.6981 23.0118 96.9207 22.1362 99.2542 21.8167C99.7122 21.7311 100.227 21.638 100.799 21.5374C101.37 21.4367 101.971 21.3288 102.601 21.2138V17.8236C102.707 16.4199 102.464 15.0117 101.894 13.7249C101.669 13.3433 101.344 13.0314 100.953 12.8239C100.562 12.6163 100.121 12.5212 99.6792 12.5492C99.3752 12.5345 99.0718 12.5865 98.7901 12.7014C98.5083 12.8164 98.2552 12.9916 98.0483 13.2147C97.5653 13.8848 97.2961 14.6853 97.276 15.5111L97.1897 15.9835C97.2213 16.9631 96.9019 17.9217 96.289 18.6865C96.0331 18.965 95.7209 19.1859 95.3732 19.3347C95.0255 19.4834 94.6501 19.5566 94.272 19.5494C93.5903 19.5725 92.9271 19.3256 92.4265 18.8624C92.181 18.624 91.9891 18.3362 91.8634 18.018C91.7377 17.6998 91.6811 17.3586 91.6973 17.0168C91.6856 16.4656 91.7882 15.9179 91.9988 15.4083C92.2093 14.8987 92.5231 14.4383 92.9205 14.056C93.8349 13.1988 94.9462 12.5798 96.1564 12.2536C97.5786 11.8423 99.053 11.6399 100.533 11.6528C102.665 11.5153 104.77 12.1815 106.435 13.5199C107.822 14.7647 108.516 16.7889 108.516 19.5926V29.077C108.516 30.3641 109.117 31.0077 110.319 31.0077H111.263L111.649 31.3507C111.162 31.9864 110.558 32.5241 109.871 32.9352C109.026 33.3517 108.087 33.5437 107.146 33.4929C106.08 33.5518 105.027 33.2405 104.164 32.6116C103.431 32.0199 102.924 31.1943 102.726 30.2732C101.926 31.1376 101.041 31.9209 100.087 32.6116C99.0515 33.293 97.8271 33.6298 96.5889 33.5738V33.5824ZM99.2067 30.9646C99.769 30.9671 100.323 30.8268 100.816 30.5568C101.449 30.1923 102.045 29.7682 102.597 29.2905V22.081L101.734 22.2525C101.446 22.31 101.117 22.3672 100.747 22.424C99.5546 22.6987 98.4623 23.3004 97.5931 24.1617C97.1912 24.6028 96.8805 25.119 96.6787 25.6806C96.477 26.2422 96.3882 26.8382 96.4174 27.4342C96.3447 28.3856 96.6362 29.329 97.2328 30.0736C97.4788 30.3543 97.7825 30.5784 98.1233 30.7307C98.464 30.883 98.8335 30.9598 99.2067 30.9559V30.9646Z" fill="#0A1837" fill-opacity="0.3"/>
</svg>
