<svg width="126" height="32" viewBox="0 0 126 32" fill="none" xmlns="http://www.w3.org/2000/svg">
<path d="M4.88688 26.0811L13.2663 31.6677C13.593 31.8849 13.9766 32.0008 14.3689 32.0008C14.7612 32.0008 15.1448 31.8849 15.4715 31.6677L23.8509 26.0811C25.2139 25.1758 26.3314 23.9471 27.1037 22.5046C27.876 21.0621 28.2791 19.4508 28.2768 17.8146V2.20651C28.2768 1.67829 28.067 1.1717 27.6935 0.79819C27.32 0.42468 26.8134 0.214844 26.2852 0.214844H2.45262C1.92439 0.214844 1.4178 0.42468 1.04429 0.79819C0.670783 1.1717 0.460947 1.67829 0.460947 2.20651V17.8146C0.458698 19.4508 0.861728 21.0621 1.63404 22.5046C2.40635 23.9471 3.5239 25.1758 4.88688 26.0811ZM4.43433 4.18822H24.3012V17.8146C24.304 18.7975 24.0628 19.7658 23.5994 20.6327C23.1359 21.4996 22.4646 22.2379 21.6457 22.7816L14.3661 27.6313L7.08878 22.7771C6.27045 22.2339 5.59956 21.4963 5.13613 20.6302C4.6727 19.7642 4.4312 18.7968 4.43322 17.8146L4.43433 4.18822Z" fill="#0A1837" fill-opacity="0.3"/>
<path d="M12.3853 20.0789C12.9119 20.0781 13.4167 19.8688 13.7894 19.4968L21.7318 11.5501L18.928 8.74072L12.3864 15.2822L9.81717 12.7141L7.00781 15.5235L10.9812 19.4968C11.3539 19.8688 11.8587 20.0781 12.3853 20.0789Z" fill="#0A1837" fill-opacity="0.3"/>
<path d="M44.2347 24.6786C42.9609 24.6663 41.6928 24.5059 40.456 24.2006C39.3713 23.9689 38.3156 23.6179 37.3081 23.1539L37.7507 19.0909C39.8902 20.2364 42.2585 20.89 44.6828 21.004C45.5524 21.0515 46.4162 20.8368 47.1624 20.3877C47.4552 20.1893 47.6916 19.9185 47.8487 19.6017C48.0057 19.2849 48.0781 18.9328 48.0587 18.5797C48.0789 18.0434 47.9035 17.518 47.5652 17.1014C47.1739 16.6687 46.6887 16.3314 46.1467 16.1155C45.5293 15.8492 44.5434 15.4771 43.189 14.9991C42.0911 14.6395 41.0306 14.1744 40.0223 13.6105C39.216 13.1538 38.5326 12.5083 38.0306 11.7294C37.5229 10.877 37.2721 9.89612 37.3081 8.90459C37.2811 8.07947 37.445 7.25927 37.787 6.50789C38.129 5.75651 38.6399 5.09424 39.2798 4.57271C40.9094 3.37908 42.9073 2.79736 44.9229 2.92958C46.0841 2.9302 47.2417 3.06046 48.374 3.31796C49.4475 3.55509 50.501 3.87471 51.5253 4.27396L51.1391 8.18759C50.0415 7.69862 48.9081 7.29432 47.7489 6.9782C46.7495 6.71257 45.7201 6.57683 44.6861 6.57433C43.7839 6.51956 42.8842 6.71605 42.087 7.14196C41.8035 7.30974 41.5705 7.55098 41.4128 7.8402C41.255 8.12942 41.1783 8.45588 41.1907 8.78509C41.1711 9.28706 41.3418 9.77793 41.6687 10.1593C42.0316 10.5488 42.4748 10.8546 42.9677 11.0556C43.5151 11.2946 44.3265 11.5834 45.402 11.922C47.3192 12.4263 49.1135 13.316 50.6755 14.5366C51.2324 15.0479 51.6699 15.6757 51.9567 16.3753C52.2436 17.0748 52.3728 17.829 52.3352 18.5841C52.3515 20.1767 51.7397 21.7115 50.6324 22.8562C49.4949 24.0711 47.3623 24.6786 44.2347 24.6786ZM58.1564 24.5591C57.5861 24.5752 57.0183 24.4763 56.487 24.2684C55.9557 24.0604 55.4717 23.7476 55.0638 23.3486C54.6427 22.9185 54.3152 22.4058 54.1019 21.8429C53.8886 21.28 53.7942 20.679 53.8246 20.0779C53.8045 19.4846 53.9211 18.8946 54.1653 18.3536C54.4096 17.8126 54.7749 17.3349 55.2331 16.9576C56.1987 16.1559 57.3337 15.5838 58.5526 15.2846C59.7536 14.9667 60.9858 14.7812 62.2272 14.7313C62.2578 14.0406 62.0167 13.3654 61.5556 12.8503C60.9765 12.4182 60.2579 12.216 59.5384 12.2827C58.8869 12.282 58.2385 12.3725 57.612 12.5516C56.8663 12.7775 56.1415 13.0674 55.4456 13.4179L55.1136 10.4006C56.8 9.55393 58.6574 9.10358 60.5442 9.08384C61.2768 9.0345 62.0117 9.13678 62.703 9.38427C63.3943 9.63177 64.0271 10.0192 64.5619 10.5223C65.5989 11.8088 66.097 13.4471 65.9516 15.0931V19.1263C65.9362 19.6713 65.9714 20.2165 66.0567 20.755C66.0678 20.8792 66.1056 20.9996 66.1674 21.1079C66.2293 21.2161 66.3138 21.3098 66.4152 21.3824C66.6852 21.4902 66.976 21.5364 67.2661 21.5174H67.7441L67.4177 24.5591H66.0766C65.3613 24.5829 64.6518 24.4237 64.0153 24.0966C63.4727 23.8039 63.0257 23.3614 62.7273 22.8219C62.1883 23.4019 61.5144 23.8397 60.7655 24.0966C59.9307 24.4062 59.0469 24.5629 58.1564 24.5591ZM59.7055 21.721C60.1477 21.7076 60.5834 21.6116 60.9901 21.4377C61.4553 21.2565 61.8813 20.9875 62.2449 20.6455V17.2397C61.1469 17.2746 60.0683 17.5384 59.0781 18.0143C58.6848 18.1601 58.344 18.4199 58.0991 18.7605C57.8543 19.1011 57.7167 19.507 57.7039 19.9263C57.6825 20.1737 57.7141 20.4228 57.7965 20.6571C57.879 20.8914 58.0103 21.1055 58.1819 21.285C58.6211 21.6113 59.165 21.7645 59.7099 21.7154L59.7055 21.721ZM75.723 31.7844C73.9665 31.8692 72.2203 31.4712 70.6741 30.6337C70.1051 30.3351 69.629 29.8862 69.2973 29.3359C68.9657 28.7856 68.7913 28.1548 68.7931 27.5123C68.8265 26.7579 69.071 26.0281 69.4985 25.4057C69.9261 24.7833 70.5197 24.2934 71.2118 23.9915C70.8205 23.791 70.4912 23.4875 70.2596 23.1137C70.028 22.7399 69.9027 22.3101 69.8973 21.8704C69.8924 21.4286 70.0344 20.9977 70.3012 20.6455C70.5875 20.2726 70.9605 19.9752 71.3878 19.7791C70.6432 19.2558 70.0507 18.5445 69.6705 17.7177C69.2771 16.8543 69.0791 15.9147 69.0907 14.9659C69.0784 13.9211 69.3247 12.8895 69.8077 11.9629C70.283 11.0594 71.0092 10.3125 71.899 9.8119C72.8952 9.26445 74.019 8.99143 75.1553 9.02077C76.3609 8.98969 77.5478 9.32286 78.5611 9.97677C78.9928 9.76492 79.4498 9.60912 79.921 9.51315C80.524 9.38009 81.1401 9.31514 81.7577 9.31952H82.7137L82.4747 11.6498H81.1248C80.7862 11.6498 80.5074 11.6597 80.2883 11.6796C80.9046 12.6627 81.2165 13.8061 81.1846 14.9659C81.197 16.0085 80.9563 17.0387 80.483 17.9678C80.0183 18.8731 79.2981 19.6221 78.4117 20.1221C77.4155 20.6696 76.2917 20.9426 75.1553 20.9132C74.6213 20.9035 74.0902 20.8334 73.572 20.7041C73.4735 20.7389 73.3885 20.8038 73.3289 20.8896C73.2693 20.9754 73.2382 21.0777 73.24 21.1821C73.2469 21.3187 73.2947 21.4501 73.3772 21.5592C73.4597 21.6683 73.573 21.7501 73.7025 21.794C74.2048 21.9924 74.7327 22.1184 75.2704 22.168L77.8397 22.4999C81.2653 22.958 82.9782 24.402 82.9782 26.8318C82.9927 27.5489 82.8232 28.2577 82.4857 28.8906C82.1483 29.5234 81.6542 30.0592 81.0507 30.4467C79.4524 31.4246 77.5936 31.8913 75.723 31.7844ZM75.1553 18.1658C75.5306 18.1872 75.9056 18.1214 76.2512 17.9736C76.5967 17.8258 76.9033 17.6 77.147 17.3139C77.6481 16.6375 77.895 15.8062 77.8441 14.9659C77.8928 14.1257 77.6441 13.2952 77.1415 12.6202C76.8978 12.334 76.5912 12.1082 76.2456 11.9604C75.9001 11.8126 75.525 11.7468 75.1498 11.7682C74.7708 11.7453 74.3917 11.8103 74.042 11.9581C73.6923 12.1058 73.3815 12.3324 73.1338 12.6202C72.6312 13.2952 72.3824 14.1257 72.4312 14.9659C72.3827 15.8057 72.6314 16.6358 73.1338 17.3105C73.3817 17.5996 73.6933 17.8273 74.0441 17.9757C74.3948 18.1241 74.7752 18.1892 75.1553 18.1658ZM75.8723 28.9806C78.4217 28.9806 79.6963 28.3536 79.6963 27.0996C79.7107 26.8525 79.657 26.6062 79.5411 26.3875C79.4252 26.1688 79.2516 25.9861 79.0391 25.8592C78.3572 25.5145 77.6181 25.297 76.8582 25.2175L73.572 24.7384C73.1008 24.8572 72.6807 25.1249 72.3739 25.5017C72.0671 25.8785 71.89 26.3442 71.8691 26.8296C71.8636 27.1719 71.9601 27.5081 72.1463 27.7954C72.3325 28.0827 72.6 28.3081 72.9147 28.4429C73.846 28.8476 74.8582 29.0317 75.8723 28.9806ZM84.7762 3.34783H88.4807V7.05234H84.7762V3.34783ZM84.7762 9.32284H88.4807V24.2604H84.7762V9.32284ZM96.8147 24.5591C96.2629 24.5979 95.7092 24.5149 95.193 24.3161C94.6767 24.1172 94.2105 23.8074 93.8272 23.4084C93.1518 22.6475 92.7889 21.6594 92.8115 20.6422V12.3668H90.6903L91.0223 9.31952H92.8148V6.03327L96.5193 5.64489V9.32284H99.8056V12.3701H96.516V19.1196C96.4934 19.6763 96.5387 20.2337 96.651 20.7794C96.6846 20.9201 96.7548 21.0495 96.8545 21.1544C96.9542 21.2593 97.0798 21.336 97.2186 21.3769C97.7332 21.4892 98.2602 21.5346 98.7865 21.5119H99.8022L99.4736 24.5591H96.8147ZM107.092 24.5591C106.54 24.598 105.986 24.5153 105.47 24.3166C104.954 24.1179 104.488 23.8083 104.104 23.4095C103.429 22.6486 103.066 21.6605 103.088 20.6433V12.3679H100.967L101.299 9.32063H103.092V6.03437L106.796 5.646V9.32284H110.083V12.3701H106.795V19.1196C106.772 19.6763 106.817 20.2336 106.929 20.7794C106.963 20.9201 107.033 21.0495 107.133 21.1544C107.232 21.2593 107.358 21.336 107.497 21.3769C108.012 21.4893 108.539 21.5347 109.066 21.5119H110.081L109.751 24.5591H107.092ZM115.722 24.5591C115.153 24.5746 114.586 24.4754 114.055 24.2675C113.525 24.0595 113.041 23.7471 112.634 23.3486C112.213 22.9185 111.885 22.4058 111.672 21.8429C111.459 21.28 111.364 20.679 111.395 20.0779C111.374 19.485 111.49 18.8954 111.733 18.3544C111.976 17.8134 112.341 17.3355 112.798 16.9576C113.763 16.1559 114.898 15.5838 116.117 15.2846C117.318 14.9667 118.551 14.7812 119.792 14.7313C119.823 14.0406 119.581 13.3654 119.12 12.8503C118.541 12.4182 117.823 12.216 117.103 12.2827C116.451 12.2819 115.803 12.3724 115.176 12.5516C114.43 12.7776 113.706 13.0675 113.01 13.4179L112.678 10.4006C114.367 9.55371 116.227 9.10409 118.116 9.08605C118.848 9.03656 119.584 9.13876 120.275 9.38626C120.966 9.63376 121.599 10.0212 122.134 10.5245C123.171 11.811 123.67 13.4493 123.524 15.0954V19.1285C123.508 19.6735 123.543 20.2187 123.628 20.7572C123.639 20.8814 123.677 21.0018 123.739 21.1101C123.801 21.2184 123.885 21.312 123.987 21.3846C124.257 21.4926 124.548 21.5387 124.839 21.5196H125.317L124.987 24.5591H123.643C122.927 24.5829 122.218 24.4237 121.581 24.0966C121.039 23.8037 120.592 23.3613 120.294 22.8219C119.757 23.4008 119.086 23.8386 118.34 24.0966C117.504 24.4069 116.618 24.5635 115.726 24.5591H115.722ZM117.271 21.721C117.714 21.7076 118.149 21.6116 118.556 21.4377C119.021 21.2565 119.447 20.9875 119.811 20.6455V17.2397C118.713 17.2746 117.634 17.5384 116.644 18.0143C116.251 18.1601 115.91 18.4199 115.665 18.7605C115.42 19.1011 115.283 19.507 115.27 19.9263C115.249 20.1748 115.282 20.4248 115.367 20.6595C115.451 20.8942 115.584 21.1083 115.758 21.2872C116.195 21.6112 116.737 21.7635 117.279 21.7154L117.271 21.721Z" fill="#0A1837" fill-opacity="0.3"/>
</svg>
