<svg width="129" height="41" viewBox="0 0 129 41" fill="none" xmlns="http://www.w3.org/2000/svg">
<path d="M26.5167 0.267346C26.0411 0.148438 25.4465 0.148438 24.9709 0.148438H15.4582C14.9825 0.148438 14.388 0.148438 13.9123 0.267346C6.06436 0.9808 0 7.6397 0 15.6066V25.1193C0 33.324 6.42108 40.1019 14.6258 40.5775H15.4582H24.9709H25.8032C34.008 40.1019 40.4291 33.324 40.4291 25.1193V15.6066C40.4291 7.6397 34.3647 0.9808 26.5167 0.267346ZM36.3861 25.1193C36.3861 31.4215 31.2731 36.5346 24.9709 36.5346H15.4582C9.15599 36.5346 4.04291 31.4215 4.04291 25.1193V15.6066C4.04291 9.30443 9.15599 4.19134 15.4582 4.19134H24.9709C31.2731 4.19134 36.3861 9.30443 36.3861 15.6066V25.1193Z" fill="#0A1837" fill-opacity="0.3"/>
<path d="M29.1305 22.3882C28.7738 22.1504 28.2982 21.9126 27.9414 21.9126C27.228 21.9126 26.6334 22.2693 26.1578 22.745C24.7309 24.5286 22.4716 25.5988 20.2124 25.7177C17.8342 25.5988 15.6938 24.5286 14.2669 22.745C13.5535 21.7937 12.2455 21.6748 11.2942 22.3882C10.4618 23.1017 10.224 24.2908 10.8185 25.2421C13.0778 28.0959 16.5262 29.7606 20.0934 29.8795C23.7796 29.7606 27.1091 28.0959 29.3683 25.2421C29.7251 24.7664 29.844 24.2908 29.7251 23.6962C29.844 23.2206 29.6062 22.6261 29.1305 22.3882Z" fill="#0A1837" fill-opacity="0.3"/>
<path opacity="0.999" d="M55.6506 29.8805C53.6292 29.9994 51.6077 29.5237 49.8241 28.4535C49.1106 28.0968 48.7539 27.3834 48.7539 26.6699C48.7539 26.3132 48.8728 25.9565 49.1106 25.5997C49.3485 25.3619 49.7052 25.1241 50.0619 25.243C50.6564 25.243 51.1321 25.4808 51.6077 25.7186C52.2023 26.0754 52.9157 26.3132 53.5103 26.4321C54.2237 26.6699 54.9372 26.6699 55.7695 26.6699C56.483 26.6699 57.3154 26.551 57.9099 26.1943C58.3855 25.9565 58.7423 25.4808 58.7423 24.8863C58.7423 24.5295 58.6233 24.2917 58.3855 23.935C58.0288 23.6972 57.6721 23.4594 57.3154 23.3405C56.483 23.1026 55.6506 22.8648 54.8183 22.7459C53.2724 22.5081 51.8455 21.9136 50.6564 21.0812C49.8241 20.3677 49.3485 19.1786 49.3485 18.1085C49.3485 17.1572 49.5863 16.2059 50.1808 15.4925C50.7754 14.6601 51.6077 14.0656 52.559 13.7088C53.6292 13.2332 54.8183 12.9954 56.0074 13.1143C56.9586 13.1143 57.791 13.2332 58.6234 13.471C59.4557 13.7088 60.1692 14.0656 60.8826 14.4223C61.4772 14.779 61.9528 15.4925 61.9528 16.2059C61.9528 16.5626 61.8339 17.0383 61.5961 17.2761C61.3583 17.5139 61.0015 17.7517 60.6448 17.7517C60.407 17.7517 60.1692 17.7517 59.9314 17.6328C59.5746 17.5139 59.3368 17.395 59.099 17.1572C58.6234 16.9194 58.0288 16.6816 57.4343 16.4437C56.8397 16.2059 56.2452 16.2059 55.7695 16.2059C55.0561 16.2059 54.4615 16.3248 53.867 16.6816C53.3914 16.9194 53.1535 17.5139 53.1535 17.9896C53.1535 18.4652 53.3914 19.0597 53.867 19.2976C54.6994 19.7732 55.6506 20.011 56.7208 20.1299C57.9099 20.3677 59.099 20.7245 60.1692 21.2001C60.8826 21.5568 61.4772 22.0325 61.9528 22.627C62.3095 23.3405 62.5473 24.0539 62.5473 24.8863C62.5473 26.3132 61.8339 27.7401 60.6448 28.4535C59.099 29.4048 57.4343 29.8805 55.6506 29.8805ZM85.6157 12.9954C87.1615 12.8765 88.5884 13.471 89.6586 14.5412C90.7288 15.9681 91.2044 17.7517 91.0855 19.6543V27.7401C91.0855 28.3346 90.9666 28.8103 90.491 29.167C90.0153 29.5237 89.5397 29.7615 88.9451 29.6426C88.3506 29.6426 87.875 29.5237 87.5182 29.167C87.1615 28.8103 86.9237 28.2157 86.9237 27.7401V19.6543C87.0426 18.703 86.8048 17.8706 86.3291 17.0383C85.8535 16.4437 85.1401 16.2059 84.3077 16.2059C83.3564 16.2059 82.4051 16.5626 81.6917 17.2761C80.9782 18.1085 80.6215 19.1786 80.7404 20.2488V27.6212C80.7404 28.2157 80.6215 28.6914 80.1459 29.0481C79.7892 29.4048 79.1946 29.5237 78.719 29.5237C78.1244 29.5237 77.6488 29.4048 77.2921 29.0481C76.9353 28.6914 76.6975 28.0968 76.6975 27.6212V19.5354C76.8164 18.5841 76.5786 17.7517 76.103 16.9194C75.6273 16.3248 74.9139 16.087 74.0815 16.087C73.1302 16.087 72.179 16.4437 71.4655 17.1572C70.7521 17.9896 70.5142 19.0597 70.5142 20.1299V27.5023C70.5142 28.0968 70.2764 28.5725 69.9197 28.9292C69.563 29.2859 68.9684 29.4048 68.4928 29.4048C67.8983 29.4048 67.4226 29.2859 67.0659 28.9292C66.7092 28.5725 66.4713 27.9779 66.4713 27.5023V15.0168C66.4713 14.4223 66.7092 13.9467 67.0659 13.5899C67.5415 13.2332 68.0172 13.1143 68.4928 13.1143C68.9684 13.1143 69.563 13.2332 69.9197 13.5899C70.2764 13.9467 70.5142 14.4223 70.5142 15.0168V15.8492C70.9899 15.0168 71.7033 14.3034 72.5357 13.8277C73.487 13.3521 74.4382 13.1143 75.5084 13.1143C77.6488 12.8765 79.6702 14.1845 80.3837 16.2059C80.8593 15.2546 81.5728 14.5412 82.5241 13.9467C83.4753 13.3521 84.5455 12.9954 85.6157 12.9954ZM97.9822 29.7615C97.3877 29.7615 96.912 29.6426 96.5553 29.2859C96.1986 28.9292 95.9608 28.3346 95.9608 27.859V15.0168C95.9608 14.4223 96.0797 13.9467 96.5553 13.5899C96.912 13.2332 97.5066 13.1143 97.9822 13.1143C98.5768 13.1143 99.0524 13.2332 99.4091 13.5899C99.7659 13.9467 100.004 14.5412 100.004 15.0168V27.7401C100.004 28.3346 99.7659 28.8103 99.4091 29.167C99.0524 29.6426 98.5768 29.7615 97.9822 29.7615ZM97.9822 10.1416C97.3877 10.1416 96.6742 9.90375 96.1986 9.54702C95.723 9.19029 95.4851 8.59575 95.4851 8.0012C95.4851 7.40666 95.723 6.81211 96.1986 6.45538C96.6742 5.97975 97.3877 5.86084 97.9822 5.86084C98.5768 5.86084 99.2902 6.09866 99.7659 6.45538C100.241 6.81211 100.479 7.40666 100.479 8.0012C100.479 8.59575 100.241 9.19029 99.7659 9.54702C99.2902 10.0227 98.6957 10.1416 97.9822 10.1416ZM107.019 29.7615C106.425 29.7615 105.949 29.6426 105.592 29.2859C105.236 28.9292 104.998 28.3346 104.998 27.859V8.12011C104.998 7.52557 105.117 7.04993 105.592 6.6932C106.068 6.33648 106.544 6.09866 107.019 6.09866C107.614 6.09866 108.089 6.21757 108.446 6.57429C108.803 6.93102 109.041 7.52557 109.041 8.0012V27.7401C109.041 28.3346 108.803 28.8103 108.446 29.167C108.089 29.6426 107.614 29.7615 107.019 29.7615ZM126.877 25.1241C127.234 25.1241 127.591 25.243 127.828 25.5997C128.066 25.9565 128.185 26.3132 128.185 26.7888C128.185 27.5023 127.709 28.2157 126.996 28.4535C126.164 28.9292 125.331 29.2859 124.499 29.4048C123.667 29.6426 122.715 29.7615 121.764 29.7615C119.505 29.8805 117.245 29.0481 115.581 27.5023C114.035 25.8375 113.203 23.5783 113.321 21.319C113.321 19.7732 113.678 18.3463 114.273 16.9194C114.867 15.7303 115.819 14.6601 117.008 13.9467C118.197 13.2332 119.624 12.8765 121.051 12.8765C122.359 12.8765 123.667 13.2332 124.856 13.8277C125.926 14.4223 126.758 15.3736 127.353 16.5626C127.947 17.8706 128.304 19.2976 128.304 20.7245C128.304 21.6757 127.828 22.1514 126.996 22.1514H117.245C117.245 23.3405 117.721 24.5295 118.553 25.4808C119.386 26.1943 120.575 26.6699 121.764 26.551C122.359 26.551 123.072 26.4321 123.667 26.3132C124.261 26.0754 124.856 25.8375 125.45 25.5997C125.807 25.3619 126.283 25.243 126.877 25.1241ZM121.169 15.9681C120.218 15.9681 119.148 16.3248 118.435 17.0383C117.721 17.8706 117.245 18.9408 117.245 20.1299H124.737C124.737 19.0597 124.38 17.9896 123.785 17.0383C123.072 16.2059 122.121 15.8492 121.169 15.9681Z" fill="#0A1837" fill-opacity="0.3"/>
</svg>
