<svg width="32" height="32" viewBox="0 0 32 32" fill="none" xmlns="http://www.w3.org/2000/svg">
<path d="M26.7551 11.3039C27.4084 12.4773 27.4884 13.9839 27.1551 15.7399C26.1684 20.8066 22.7871 22.5666 18.4617 22.5666H17.7951C17.2617 22.5666 16.8084 22.9386 16.7284 23.4719L16.6751 23.7653L15.8351 29.0853L15.7817 29.3119V29.2986C15.6884 29.8186 15.2484 30.1919 14.7151 30.1919H10.2391L10.2257 30.1906C9.86573 30.1773 9.5724 29.8973 9.5724 29.5373C9.5724 29.4973 9.5724 29.4573 9.5724 29.4306L9.79906 27.9506H11.8124L13.0791 19.9239H14.9191C21.1457 19.9239 25.2524 16.9773 26.6471 11.2439L26.7551 11.3039ZM22.8084 4.51728C23.8217 5.66395 24.1151 6.93061 23.8084 8.89728C23.7817 9.05728 23.7551 9.21728 23.7151 9.37728C22.7284 14.4039 19.5951 16.6306 14.4351 16.6306H11.9057C11.0657 16.6306 10.3324 17.1773 10.1004 17.9639L10.0737 17.9506L8.83373 25.804H4.11906C4.07906 25.7906 4.03906 25.7639 4.03906 25.7239C4.03906 25.7106 4.03906 25.7106 4.03906 25.7106L7.4924 3.69328H7.47906C7.5724 3.06661 8.10573 2.61328 8.71906 2.61328H16.6791C19.5897 2.61328 21.6257 3.22661 22.7097 4.46395L22.8084 4.51728Z" fill="url(#paint0_linear_1117_3710)"/>
<defs>
<linearGradient id="paint0_linear_1117_3710" x1="6.04312" y1="29.0488" x2="27.7266" y2="3.28583" gradientUnits="userSpaceOnUse">
<stop stop-color="#0073FF"/>
<stop offset="1" stop-color="#00A2FF"/>
</linearGradient>
</defs>
</svg>
