<svg width="32" height="32" viewBox="0 0 32 32" fill="none" xmlns="http://www.w3.org/2000/svg">
<path d="M29.5508 7.53319V7.51986C28.5242 7.95986 27.4442 8.25319 26.3375 8.38653V8.37319C27.4975 7.66653 28.3642 6.57319 28.7775 5.27986C27.6842 5.91986 26.4842 6.38653 25.2308 6.62653C23.1242 4.37319 19.5908 4.25319 17.3375 6.35986C15.8708 7.71986 15.2575 9.75986 15.7108 11.7065L15.6975 11.6932C11.2015 11.4665 7.03084 9.34653 4.20151 5.86653V5.85319C3.69484 6.69319 3.44151 7.66653 3.44151 8.65319C3.44151 10.5865 4.41484 12.2932 5.92151 13.2932L5.90818 13.2799C5.01484 13.2399 4.14818 12.9999 3.37484 12.5732V12.6399L3.36151 12.6265C3.36151 15.2799 5.22818 17.5599 7.82818 18.0932V18.0799C7.00151 18.2932 6.13484 18.3332 5.30818 18.1732L5.29484 18.1599C6.01484 20.4265 8.10818 21.9865 10.4948 22.0265H10.4815C8.13484 23.8532 5.17484 24.6799 2.21484 24.3332C4.76151 25.9599 7.72151 26.8399 10.7615 26.8399C21.0188 26.8399 26.6282 18.3332 26.6282 10.9732C26.6282 10.7332 26.6148 10.4799 26.6015 10.2532V10.2399C27.6815 9.43986 28.6282 8.46653 29.3748 7.34653L29.5508 7.53319Z" fill="url(#paint0_linear_1117_3714)"/>
<defs>
<linearGradient id="paint0_linear_1117_3714" x1="4.56522" y1="25.9286" x2="19.6879" y2="-0.505854" gradientUnits="userSpaceOnUse">
<stop stop-color="#0073FF"/>
<stop offset="1" stop-color="#00A2FF"/>
</linearGradient>
</defs>
</svg>
