<svg width="58" height="26" viewBox="0 0 58 26" fill="none" xmlns="http://www.w3.org/2000/svg">
<g opacity="0.5">
<path d="M45 18L48.4762 8H51.3178L54.7939 18H52.4627L51.773 15.9597H48.0071L47.3174 18H45ZM48.6003 14.1477H51.1798L49.897 10.2953L48.6003 14.1477Z" fill="#0A1837"/>
<path d="M55.8619 18V8H58V18H55.8619Z" fill="#0A1837"/>
<path d="M14.9091 0V3.71429H18.6364V0H26.0909V14.8571H22.3636V22.2857H18.6364V26H14.9091V22.2857H18.6364V11.1429H22.3636V3.71429H18.6364V7.42857H14.9091V11.1429H11.1818V18.5714H7.45455V26H0V22.2857H3.72727V14.8571H7.45455V0H14.9091ZM37.2727 11.1429V3.71429H33.5455V0H41V11.1429H37.2727V26H29.8182V18.5714H33.5455V11.1429H37.2727Z" fill="#0A1837"/>
</g>
</svg>
