<svg width="32" height="32" viewBox="0 0 32 32" fill="none" xmlns="http://www.w3.org/2000/svg">
<path d="M15.999 2.66684C8.62571 2.66684 2.66571 8.62684 2.66571 16.0002H2.65238C2.63905 21.7335 6.31905 26.8268 11.759 28.6402C12.4257 28.7468 12.6657 28.3468 12.6657 28.0002C12.6657 27.6802 12.639 26.6268 12.639 25.5068C9.27905 26.1202 8.42305 24.6802 8.15638 23.9335C7.99638 23.5468 7.35638 22.3602 6.78305 22.0402C6.31638 21.7868 5.64971 21.1735 6.75638 21.1468C7.79638 21.1202 8.55638 22.1068 8.79638 22.5068C9.99638 24.5202 11.903 23.9468 12.6764 23.6002C12.783 22.7335 13.143 22.1468 13.5164 21.8135C10.543 21.4802 7.44971 20.3202 7.44971 15.2268C7.44971 13.7735 7.95638 12.5775 8.80971 11.6402C8.67638 11.3068 8.20971 9.9335 8.94305 8.10684C8.94305 8.10684 10.0497 7.74684 12.6097 9.46684H12.5964C13.6764 9.16017 14.7964 9.0135 15.9297 9.0135C17.063 9.0135 18.1964 9.16017 19.263 9.4535C21.8097 7.72017 22.9297 8.08817 22.9297 8.08817C23.663 9.9215 23.1964 11.2882 23.063 11.6215C23.903 12.5548 24.423 13.7282 24.423 15.1948C24.423 20.3015 21.303 21.4348 18.3297 21.7682C18.8097 22.1815 19.223 22.9815 19.223 24.2348C19.223 26.0082 19.1964 27.4482 19.1964 27.9015C19.1964 28.2482 19.4364 28.6615 20.103 28.5282H20.0897C25.5164 26.6882 29.1697 21.5948 29.1697 15.8748C29.1697 8.5015 23.1964 2.5415 15.8364 2.5415L15.999 2.66684Z" fill="url(#paint0_linear_1117_3706)"/>
<defs>
<linearGradient id="paint0_linear_1117_3706" x1="4.93233" y1="27.5752" x2="24.5185" y2="-0.382462" gradientUnits="userSpaceOnUse">
<stop stop-color="#0073FF"/>
<stop offset="1" stop-color="#00A2FF"/>
</linearGradient>
</defs>
</svg>
