<svg width="32" height="32" viewBox="0 0 32 32" fill="none" xmlns="http://www.w3.org/2000/svg">
<path d="M13.4336 14.6666C14.2336 14.6666 14.8736 15.2666 14.8603 15.9999C14.8603 16.7333 14.2203 17.3333 13.4203 17.3333C12.6336 17.3333 11.9803 16.7333 11.9803 15.9999C11.9803 15.2666 12.6069 14.6666 13.4069 14.6666H13.4336ZM18.5536 14.6666C19.3536 14.6666 19.9803 15.2666 19.9803 15.9999C19.9803 16.7333 19.3403 17.3333 18.5403 17.3333C17.7536 17.3333 17.1003 16.7333 17.1003 15.9999C17.1003 15.2666 17.7269 14.6666 18.5269 14.6666H18.5536ZM25.1669 2.66661C26.7136 2.66661 27.9669 3.94661 27.9669 5.54661V30.6626L25.0069 27.9959L23.3403 26.4226L21.5803 24.7559L22.3003 27.3426H6.74559C5.18559 27.3413 3.93359 26.0493 3.93359 24.4493V5.50661C3.93359 3.90661 5.18693 2.61328 6.74559 2.61328H25.1189L25.1669 2.66661ZM19.8736 20.9506C22.9003 20.8439 24.0603 18.8226 24.0603 18.8226C24.0603 14.3026 22.0736 10.6493 22.0736 10.6493C20.1003 9.13861 18.2203 9.16928 18.2203 9.16928L18.0203 9.38261C20.3403 10.1026 21.4336 11.1559 21.4336 11.1559C20.1536 10.4359 18.7536 9.96928 17.3003 9.80928C16.3669 9.70261 15.4469 9.70261 14.5269 9.82261C14.4336 9.82261 14.3669 9.83595 14.2869 9.84928C13.8069 9.88928 12.6336 10.0626 11.1669 10.7293C10.6603 10.9559 10.3536 11.1293 10.3536 11.1293C10.3536 11.1293 11.4869 10.0226 13.9536 9.28928L13.8069 9.11595C13.8069 9.11595 11.9269 9.06261 9.95359 10.5826C9.95359 10.5826 7.96693 14.2359 7.96693 18.7439C7.96693 18.7439 9.11359 20.7706 12.1403 20.8719C12.1403 20.8719 12.6469 20.2319 13.0603 19.6986C11.3136 19.1653 10.6603 18.0453 10.6603 18.0453C10.6603 18.0453 10.7936 18.1386 11.0336 18.2719C11.0469 18.2853 11.0603 18.2986 11.0869 18.3119C11.1269 18.3386 11.1669 18.3519 11.2069 18.3786C11.5403 18.5653 11.8869 18.7253 12.2069 18.8453C12.7669 19.0586 13.4336 19.2853 14.2243 19.4453L14.2109 19.4319C15.3709 19.6586 16.5843 19.6586 17.7576 19.4453V19.4319C18.4376 19.2986 19.1043 19.0986 19.7443 18.8186C20.2243 18.6319 20.7576 18.3653 21.3176 17.9919C21.3176 17.9919 20.6243 19.1386 18.8349 19.6586C19.2349 20.1786 19.7416 20.7919 19.7416 20.7919L19.8736 20.9506Z" fill="url(#paint0_linear_1117_3702)"/>
<defs>
<linearGradient id="paint0_linear_1117_3702" x1="6" y1="29.5" x2="28" y2="3" gradientUnits="userSpaceOnUse">
<stop stop-color="#0073FF"/>
<stop offset="1" stop-color="#00A2FF"/>
</linearGradient>
</defs>
</svg>
