<svg width="123" height="35" viewBox="0 0 123 35" fill="none" xmlns="http://www.w3.org/2000/svg">
<path d="M42.6921 17.6136C42.6762 16.3258 42.9322 15.0492 43.4434 13.8671C43.9294 12.755 44.6486 11.7601 45.5522 10.9498C46.5012 10.1113 47.607 9.46926 48.8057 9.06085C50.1628 8.60047 51.5885 8.37508 53.0214 8.39437C54.4513 8.37774 55.8735 8.60444 57.2273 9.06479C58.43 9.47167 59.5396 10.1138 60.4917 10.9538C61.3953 11.7641 62.1145 12.7589 62.6005 13.8711C63.1117 15.0532 63.3677 16.3298 63.3518 17.6175C63.3668 18.9135 63.1109 20.1983 62.6005 21.3896C62.115 22.512 61.3961 23.5183 60.4917 24.3414C59.5413 25.1912 58.4318 25.844 57.2273 26.262C55.8759 26.7335 54.4527 26.9661 53.0214 26.9491C51.5884 26.966 50.1633 26.7325 48.8106 26.259C47.6099 25.8386 46.5042 25.1849 45.5571 24.3355C44.6511 23.5134 43.9306 22.5078 43.4434 21.3857C42.933 20.1943 42.6771 18.9095 42.6921 17.6136ZM46.3547 17.6136C46.3414 18.4794 46.5128 19.3382 46.8576 20.1326C47.1806 20.863 47.6574 21.5151 48.2556 22.0443C48.8743 22.5847 49.5927 22.999 50.3703 23.2638C51.2235 23.5552 52.1199 23.6996 53.0214 23.6907C53.923 23.6993 54.8195 23.5546 55.6726 23.2628C56.4487 22.9992 57.1654 22.5851 57.7814 22.0443C58.3772 21.513 58.8537 20.8614 59.1794 20.1326C59.528 19.3392 59.7016 18.4801 59.6882 17.6136C59.7023 16.7509 59.5288 15.8954 59.1794 15.1064C58.8546 14.3881 58.3776 13.749 57.7814 13.2332C57.1628 12.7069 56.4461 12.3085 55.6726 12.061C54.8166 11.783 53.9214 11.6448 53.0214 11.6518C52.1218 11.6433 51.2266 11.7797 50.3703 12.056C49.5954 12.3045 48.8769 12.7028 48.2556 13.2283C47.6571 13.7419 47.1797 14.3816 46.8576 15.1015C46.5115 15.893 46.34 16.7498 46.3547 17.6136ZM66.9898 13.0617H70.4099V15.0256C71.1597 14.4662 71.9605 13.9787 72.8017 13.5694C73.6043 13.175 74.4441 12.8616 75.3089 12.6338L76.3145 15.765C75.1162 15.8664 73.9431 16.1662 72.8431 16.6523C71.8819 17.0816 71.0451 17.7474 70.4109 18.5877V26.6948H66.9898V13.0617ZM80.6574 11.2012C80.3452 11.2057 80.0344 11.1571 79.7385 11.0573C79.4829 10.9707 79.2458 10.8369 79.0395 10.6629C78.8521 10.504 78.7006 10.307 78.5949 10.0852C78.4912 9.86682 78.438 9.62793 78.4391 9.38619C78.4371 9.14057 78.4903 8.89763 78.5949 8.67535C78.6996 8.45461 78.8514 8.25945 79.0395 8.10353C79.2472 7.93318 79.484 7.8019 79.7385 7.71607C80.0344 7.61632 80.3452 7.56764 80.6574 7.57213C80.9732 7.56714 81.2876 7.61581 81.5871 7.71607C81.8416 7.8019 82.0785 7.93318 82.2861 8.10353C82.4742 8.25945 82.626 8.45461 82.7308 8.67535C82.8353 8.89763 82.8885 9.14057 82.8865 9.38619C82.8876 9.62793 82.8344 9.86682 82.7308 10.0852C82.6251 10.307 82.4735 10.504 82.2861 10.6629C82.0798 10.8369 81.8427 10.9707 81.5871 11.0573C81.2876 11.1576 80.9732 11.2062 80.6574 11.2012ZM78.9508 13.0617H82.3709V26.6948H78.9508V13.0617ZM85.929 19.8782C85.9217 18.9293 86.1236 17.9904 86.5206 17.1285C86.9204 16.2689 87.4993 15.5045 88.2183 14.8866C89.0046 14.2184 89.9101 13.7049 90.8872 13.3732C92.0196 12.9893 93.2093 12.8019 94.4049 12.8191C95.6005 12.8023 96.7902 12.99 97.9226 13.3742C98.8997 13.7059 99.8052 14.2193 100.591 14.8876C101.312 15.5058 101.892 16.2708 102.292 17.1315C102.689 17.9934 102.891 18.9323 102.884 19.8812C102.891 20.8301 102.689 21.7689 102.292 22.6309C101.892 23.4903 101.313 24.2543 100.593 24.8718C99.807 25.5393 98.9015 26.0521 97.9246 26.3832C96.7922 26.7674 95.6025 26.9552 94.4069 26.9383C93.2113 26.9555 92.0216 26.7681 90.8891 26.3842C89.9112 26.0522 89.005 25.538 88.2183 24.8689C87.499 24.2513 86.9199 23.4873 86.5196 22.6279C86.122 21.7661 85.9193 20.8273 85.9261 19.8782H85.929ZM89.5227 19.8782C89.5203 20.4137 89.6326 20.9435 89.852 21.432C90.0757 21.927 90.4028 22.3684 90.8113 22.7265C91.2624 23.1174 91.7841 23.4186 92.3483 23.6138C93.0113 23.843 93.7093 23.9545 94.4108 23.9431C95.1122 23.9545 95.8103 23.843 96.4733 23.6138C97.0375 23.4186 97.5592 23.1174 98.0103 22.7265C98.417 22.3679 98.7424 21.9265 98.9647 21.432C99.1841 20.9435 99.2964 20.4137 99.294 19.8782C99.2965 19.3395 99.1843 18.8065 98.9647 18.3146C98.742 17.8175 98.4148 17.3743 98.0054 17.0151C97.5542 16.6242 97.0326 16.323 96.4684 16.1278C95.8053 15.8986 95.1073 15.7872 94.4059 15.7985C93.7044 15.7872 93.0064 15.8986 92.3433 16.1278C91.7792 16.323 91.2575 16.6242 90.8063 17.0151C90.3976 17.3745 90.0711 17.8177 89.849 18.3146C89.6294 18.8065 89.5172 19.3395 89.5197 19.8782H89.5227ZM106.345 13.0617H109.765V14.2171C110.581 13.7401 111.458 13.3753 112.371 13.1326C113.166 12.929 113.983 12.8243 114.803 12.8211C115.785 12.8118 116.761 12.966 117.692 13.2776C118.546 13.5628 119.329 14.0255 119.991 14.6352C120.657 15.2632 121.175 16.0304 121.51 16.882C121.891 17.8732 122.076 18.929 122.055 19.9906V26.6948H118.646V20.5486C118.657 19.8672 118.55 19.1891 118.329 18.5443C118.137 17.9869 117.825 17.4781 117.416 17.0536C117.009 16.6426 116.515 16.3271 115.972 16.1298C115.362 15.9106 114.718 15.8031 114.071 15.8123C113.689 15.8136 113.308 15.8522 112.933 15.9277C112.543 16.005 112.161 16.1151 111.789 16.257C111.412 16.4003 111.049 16.5781 110.705 16.7884C110.365 16.9952 110.047 17.237 109.757 17.5101V26.6948H106.341L106.345 13.0617Z" fill="#0A1837" fill-opacity="0.3"/>
<path d="M17.8741 34.8106C14.4903 34.8106 11.1826 33.8072 8.36913 31.9273C5.55566 30.0474 3.36283 27.3755 2.06794 24.2493C0.773038 21.1232 0.434234 17.6832 1.09437 14.3645C1.7545 11.0458 3.38392 7.99736 5.77658 5.6047C8.16924 3.21205 11.2177 1.58262 14.5364 0.922492C17.8551 0.262359 21.295 0.601163 24.4212 1.89606C27.5473 3.19096 30.2193 5.38379 32.0992 8.19726C33.9791 11.0107 34.9825 14.3185 34.9825 17.7022C34.9825 22.2396 33.18 26.5912 29.9716 29.7997C26.7631 33.0081 22.4115 34.8106 17.8741 34.8106ZM17.8741 31.3886C21.5041 31.3886 24.9854 29.9466 27.5521 27.3798C30.1189 24.813 31.5609 21.3317 31.5609 17.7017C31.5609 14.0717 30.1189 10.5904 27.5521 8.02364C24.9854 5.45686 21.5041 4.01485 17.8741 4.01485C14.2441 4.01485 10.7628 5.45686 8.19601 8.02364C5.62923 10.5904 4.18722 14.0717 4.18722 17.7017C4.18722 21.3317 5.62923 24.813 8.19601 27.3798C10.7628 29.9466 14.2441 31.3886 17.8741 31.3886ZM21.2962 14.2801H16.1635C15.7097 14.2801 15.2745 14.0998 14.9536 13.779C14.6328 13.4581 14.4525 13.0229 14.4525 12.5691C14.4525 12.1153 14.6328 11.6801 14.9536 11.3592C15.2745 11.0383 15.7097 10.858 16.1635 10.858H23.0067C23.4604 10.858 23.8955 11.0383 24.2162 11.359C24.537 11.6798 24.7173 12.1149 24.7173 12.5686V19.4118C24.7173 19.8656 24.537 20.3008 24.2161 20.6217C23.8952 20.9425 23.46 21.1228 23.0062 21.1228C22.5524 21.1228 22.1172 20.9425 21.7963 20.6217C21.4754 20.3008 21.2952 19.8656 21.2952 19.4118L21.2962 14.2801ZM16.1635 19.4127H11.0309C10.5771 19.4127 10.1419 19.2325 9.82101 18.9116C9.50012 18.5907 9.31985 18.1555 9.31985 17.7017C9.31985 17.2479 9.50012 16.8127 9.82101 16.4918C10.1419 16.1709 10.5771 15.9907 11.0309 15.9907H17.8741C18.3277 15.9907 18.7628 16.1709 19.0836 16.4917C19.4044 16.8125 19.5846 17.2475 19.5846 17.7012V24.5444C19.5846 24.9982 19.4044 25.4334 19.0835 25.7543C18.7626 26.0752 18.3274 26.2554 17.8736 26.2554C17.4198 26.2554 16.9846 26.0752 16.6637 25.7543C16.3428 25.4334 16.1625 24.9982 16.1625 24.5444L16.1635 19.4127Z" fill="#0A1837" fill-opacity="0.3"/>
</svg>
