<svg width="32" height="32" viewBox="0 0 32 32" fill="none" xmlns="http://www.w3.org/2000/svg">
<path d="M29.3278 24.3066C29.3278 25.2666 28.7812 27.1333 27.5758 28.16C27.3225 28.3466 27.0825 28.24 27.1892 27.96C27.5358 27.0933 28.3492 25.0933 27.9625 24.6266C27.6958 24.2666 26.5892 24.2933 25.6425 24.3733C25.2025 24.4266 24.8292 24.4533 24.5358 24.5066C24.2558 24.52 24.2025 24.28 24.4692 24.0933C24.8158 23.84 25.1892 23.6533 25.6292 23.52C27.1625 23.0533 28.9358 23.3333 29.1892 23.6266C29.2292 23.68 29.2958 23.84 29.2958 24.24L29.3278 24.3066ZM26.7545 26.0266H26.7412C26.3812 26.2933 26.0078 26.5333 25.6345 26.7466C22.8052 28.44 19.1412 29.3333 15.9545 29.3333C10.8305 29.3333 6.24783 27.44 2.7705 24.28C2.46383 24.0266 2.71717 23.68 3.06383 23.8666C6.8105 26.0533 11.4372 27.3733 16.2492 27.3733C19.2625 27.3733 22.5158 26.8 25.6292 25.5866C25.8425 25.4933 26.0825 25.3866 26.2958 25.3066C26.7758 25.08 27.2158 25.6266 26.7225 25.9733L26.7545 26.0266ZM18.5198 11.32C18.5198 9.91996 18.5732 9.11463 18.1065 8.41329C17.6932 7.82663 16.9865 7.47996 16.0132 7.53329C14.9492 7.58663 13.7998 8.27996 13.5065 9.55996C13.4398 9.85329 13.2665 10.1333 12.9198 10.2L9.67983 9.78663C9.43983 9.73329 9.09317 9.54663 9.19983 9.07996C9.89317 5.39996 13.0265 4.11996 15.9865 3.95996H16.6798C18.3065 3.95996 20.3865 4.41329 21.7332 5.63996C23.3465 7.14663 23.1732 9.18929 23.1732 11.4V16.6266C23.1732 18.1866 23.7998 18.8933 24.4398 19.712C24.6132 19.992 24.6665 20.3386 24.3732 20.5786C23.7332 21.152 22.5065 22.192 21.8132 22.7786C21.5732 22.952 21.1598 22.9653 20.9998 22.832C19.9732 21.9653 19.7198 21.4853 19.0798 20.6186C17.9732 21.7786 17.0398 22.4186 15.9332 22.7653H15.9198C15.1332 22.952 14.3332 23.0586 13.5332 23.0453C10.7465 23.0453 8.53317 21.2986 8.53317 17.872C8.53317 15.1386 9.9865 13.2826 12.1332 12.392C14.2798 11.512 17.3998 11.232 18.3998 11.2186L18.5198 11.32ZM17.8798 18.24C18.5732 17.0666 18.5065 16.12 18.5065 13.9866C17.6265 13.9866 16.7598 14.04 15.9998 14.2133C14.6065 14.6133 13.4932 15.4933 13.4932 17.3466C13.4932 18.8 14.2398 19.7866 15.5198 19.7866C15.6932 19.7866 15.8398 19.76 15.9732 19.72C16.8665 19.4666 17.4132 19.0133 17.8265 18.2L17.8798 18.24Z" fill="url(#paint0_linear_1117_3700)"/>
<defs>
<linearGradient id="paint0_linear_1117_3700" x1="4.92807" y1="28.2816" x2="23.7171" y2="0.491521" gradientUnits="userSpaceOnUse">
<stop stop-color="#0073FF"/>
<stop offset="1" stop-color="#00A2FF"/>
</linearGradient>
</defs>
</svg>
