<svg width="32" height="32" viewBox="0 0 32 32" fill="none" xmlns="http://www.w3.org/2000/svg">
<path d="M8.69406 19.3519V19.3386C8.68073 20.7786 7.5074 21.9519 6.0674 21.9519C4.61406 21.9386 3.44073 20.7652 3.44073 19.3252C3.44073 17.8719 4.61406 16.7012 6.05406 16.7012H8.67806V19.3252L8.69406 19.3519ZM10.0141 19.3519C10.0141 17.8986 11.1874 16.7279 12.6274 16.7279C14.0674 16.7279 15.2514 17.9012 15.2514 19.3519V25.9212V25.9079C15.2381 27.3479 14.0647 28.5212 12.6247 28.5212C11.1714 28.5079 9.99806 27.3346 9.99806 25.8946V19.3252L10.0141 19.3519ZM12.6274 8.69324L12.6141 8.6919C11.1607 8.67857 9.9874 7.50524 9.9874 6.06524C9.9874 4.6119 11.1607 3.43857 12.6007 3.43857C14.0407 3.43857 15.2247 4.6119 15.2247 6.0519V8.6799H12.5874L12.6274 8.69324ZM12.6274 10.0132C14.0674 10.0132 15.2514 11.1866 15.2514 12.6266V12.6132C15.2381 14.0532 14.0647 15.2266 12.6247 15.2266H6.04073C4.5874 15.2132 3.41406 14.0399 3.41406 12.5999C3.41406 11.1466 4.5874 9.97324 6.0274 9.97324H12.6007L12.6274 10.0132ZM23.2767 12.6266C23.2767 11.1732 24.4501 9.9999 25.9007 9.9999C27.3407 9.9999 28.5141 11.1732 28.5141 12.6132V12.5999C28.5007 14.0399 27.3274 15.2132 25.8874 15.2132H23.2541V12.5866L23.2767 12.6266ZM21.9434 12.6266V12.6132C21.9301 14.0532 20.7567 15.2266 19.3167 15.2266C17.8634 15.2132 16.6901 14.0399 16.6901 12.5999V6.02657C16.6901 4.57324 17.8634 3.3999 19.3141 3.3999C20.7541 3.3999 21.9274 4.57324 21.9274 6.01324V12.5866L21.9434 12.6266ZM19.3167 23.2759C20.7567 23.2759 21.9301 24.4492 21.9301 25.8999V25.8866C21.9167 27.3266 20.7434 28.4999 19.3034 28.4999C17.8501 28.4866 16.6767 27.3132 16.6767 25.8732V23.2492H19.3007L19.3167 23.2759ZM19.3167 21.9426C17.8634 21.9292 16.6901 20.7559 16.6901 19.3159C16.6901 17.8626 17.8634 16.6919 19.3141 16.6919H25.8834C27.3234 16.6919 28.4967 17.8652 28.4967 19.3159V19.3026C28.4834 20.7426 27.3101 21.9159 25.8701 21.9159H19.2941L19.3167 21.9426Z" fill="url(#paint0_linear_1117_3712)"/>
<defs>
<linearGradient id="paint0_linear_1117_3712" x1="5.57218" y1="27.48" x2="24.5139" y2="0.873828" gradientUnits="userSpaceOnUse">
<stop stop-color="#0073FF"/>
<stop offset="1" stop-color="#00A2FF"/>
</linearGradient>
</defs>
</svg>
