<svg width="18" height="18" viewBox="0 0 18 18" fill="none" xmlns="http://www.w3.org/2000/svg">
<g clip-path="url(#clip0_1121_2149)">
<path d="M3 4.81068L0.5625 2.37018L1.62 1.30518L4.05 3.73518H15.48H15.4725C15.885 3.72768 16.2225 4.06518 16.2225 4.47768C16.2225 4.54518 16.2075 4.62018 16.185 4.68768L14.385 10.6877H14.3775C14.28 11.0027 13.9875 11.2202 13.6575 11.2202H4.4625V12.7202H12.7125V14.2202H3.7125H3.705C3.285 14.2127 2.955 13.8827 2.955 13.4627V13.4619V4.77018L3 4.81068ZM4.5 5.24568V9.74568H13.134L14.484 5.24568H4.4925H4.5ZM4.125 17.2457H4.1175C3.495 17.2382 2.9925 16.7357 2.9925 16.1207C2.9925 15.4982 3.495 14.9957 4.1175 14.9957H4.11C4.725 14.9882 5.235 15.4982 5.235 16.1207C5.235 16.7357 4.725 17.2457 4.11 17.2457H4.125ZM13.125 17.2457H13.1175C12.495 17.2382 11.9925 16.7357 11.9925 16.1207C11.9925 15.4982 12.495 14.9957 13.1175 14.9957H13.11C13.725 14.9882 14.235 15.4982 14.235 16.1207C14.235 16.7357 13.725 17.2457 13.11 17.2457H13.125Z" fill="#0A1837"/>
</g>
<defs>
<clipPath id="clip0_1121_2149">
<rect width="18" height="18" fill="white"/>
</clipPath>
</defs>
</svg>
